<svg xmlns="http://www.w3.org/2000/svg" xmlns:xlink="http://www.w3.org/1999/xlink" id="Ebene_1" x="0px" y="0px" viewBox="0 0 301.6 226.6" style="enable-background:new 0 0 301.6 226.6;" xml:space="preserve"><style type="text/css">	.st0{fill:#020203;}	.st1{fill:#9A5E32;}	.st2{fill:none;stroke:#020203;stroke-width:0.5;stroke-miterlimit:10;}</style><g>	<path class="st0" d="M7.4,129.4h8.6l1-4.4c0.5-0.1,0.9-0.1,1.3,0.1c0.2,1.8,0.4,3.8,0.4,6.3H5.6c-1,0-2.6,0.1-4.8,0.2  c-0.1-0.5,0-0.9,0.1-1.3c1.4-0.3,2.3-0.5,2.7-0.7V108l-2.8-0.7c-0.1-0.5,0-0.9,0.2-1.3c2.2,0.1,3.6,0.2,4.4,0.2  c1.1,0,2.7-0.1,4.9-0.2c0.1,0.5,0,0.9-0.1,1.3c-1.3,0.1-2.2,0.4-2.9,0.7V129.4z"></path>	<path class="st1" d="M7.4,129.4h8.6l1-4.4c0.5-0.1,0.9-0.1,1.3,0.1c0.2,1.8,0.4,3.8,0.4,6.3H5.6c-1,0-2.6,0.1-4.8,0.2  c-0.1-0.5,0-0.9,0.1-1.3c1.4-0.3,2.3-0.5,2.7-0.7V108l-2.8-0.7c-0.1-0.5,0-0.9,0.2-1.3c2.2,0.1,3.6,0.2,4.4,0.2  c1.1,0,2.7-0.1,4.9-0.2c0.1,0.5,0,0.9-0.1,1.3c-1.3,0.1-2.2,0.4-2.9,0.7V129.4z"></path>	<path d="M150.4,61.4L150.4,61.4c-3.3,0-6.3-1.3-8.6-3.7c-2.2-2.3-3.4-5.3-3.4-8.4c0.1-6.7,5.4-12,12.1-11.9  c6.6,0.1,11.9,5.5,11.9,12.1c0,3.1-1.3,6.1-3.6,8.4C156.7,60.1,153.6,61.4,150.4,61.4 M150.4,39.9c-5.2,0-9.4,4.2-9.5,9.5  c-0.1,2.5,0.9,4.9,2.7,6.7c1.8,1.9,4.2,2.9,6.8,2.9c2.5,0,5-1,6.8-2.8c1.8-1.8,2.8-4.2,2.8-6.6c0-5.3-4.3-9.6-9.5-9.6  C150.5,39.9,150.5,39.9,150.4,39.9"></path>	<path d="M171.3,33.3H160l-0.2-1.4c0-1.8-1.3-3.3-2.9-3.3h-13c-1.6,0-2.9,1.5-2.9,3.3l-0.1,1.4H139v-1c0-1.6-1.3-2.9-2.9-2.9h-3.3  c-1.6,0-2.9,1.3-2.9,2.9v1h-0.3c-2.4,0-4.3,1.9-4.3,4.3v25.5c0,2.4,1.9,4.3,4.3,4.3h41.7c2.4,0,4.3-1.9,4.3-4.3V37.6  C175.6,35.2,173.7,33.3,171.3,33.3 M143,32.1l0-0.1c0-0.7,0.4-1.3,0.9-1.3h13c0.5,0,0.9,0.6,0.9,1.3l0.2,1.3h-15.1L143,32.1z   M131.5,32.3c0-0.7,0.6-1.3,1.3-1.3h3.3c0.7,0,1.3,0.6,1.3,1.3v1h-5.9V32.3z M173.2,63.1c0,1-0.8,1.9-1.9,1.9h-41.7  c-1,0-1.9-0.8-1.9-1.9V37.6c0-1,0.8-1.9,1.9-1.9h11h2.1h15.6h2.1h11c1,0,1.9,0.8,1.9,1.9V63.1z"></path>	<path class="st0" d="M21.2,122.4c0-3,0.9-5.4,2.6-7.1c1.7-1.7,3.9-2.6,6.4-2.6c2.8,0,5,0.9,6.6,2.8c1.6,1.8,2.4,4.2,2.4,6.9  c0,3-0.9,5.4-2.6,7.2c-1.7,1.7-3.9,2.6-6.5,2.6c-2.9,0-5.1-0.9-6.7-2.8C22,127.5,21.2,125.2,21.2,122.4 M35.5,122.9  c0-2.3-0.4-4.3-1.2-6c-0.9-1.7-2.2-2.6-4-2.6c-1.8,0-3.1,0.8-3.9,2.3c-0.8,1.5-1.2,3.6-1.2,6.1c0,1.1,0.1,2.1,0.3,3.1  c0.2,1,0.5,1.8,1,2.5c0.4,0.7,1,1.3,1.6,1.7c0.7,0.4,1.4,0.6,2.4,0.6c1.5,0,2.7-0.6,3.7-1.8C35,127.6,35.5,125.6,35.5,122.9"></path>	<path class="st1" d="M21.2,122.4c0-3,0.9-5.4,2.6-7.1c1.7-1.7,3.9-2.6,6.4-2.6c2.8,0,5,0.9,6.6,2.8c1.6,1.8,2.4,4.2,2.4,6.9  c0,3-0.9,5.4-2.6,7.2c-1.7,1.7-3.9,2.6-6.5,2.6c-2.9,0-5.1-0.9-6.7-2.8C22,127.5,21.2,125.2,21.2,122.4z M35.5,122.9  c0-2.3-0.4-4.3-1.2-6c-0.9-1.7-2.2-2.6-4-2.6c-1.8,0-3.1,0.8-3.9,2.3c-0.8,1.5-1.2,3.6-1.2,6.1c0,1.1,0.1,2.1,0.3,3.1  c0.2,1,0.5,1.8,1,2.5c0.4,0.7,1,1.3,1.6,1.7c0.7,0.4,1.4,0.6,2.4,0.6c1.5,0,2.7-0.6,3.7-1.8C35,127.6,35.5,125.6,35.5,122.9z"></path>	<path class="st0" d="M49.6,132.5l-7.1-17.3l-2.8-0.7c-0.1-0.5,0-0.9,0.2-1.3c1.9,0.1,3.4,0.2,4.4,0.2c0.9,0,2.4-0.1,4.6-0.2  c0.1,0.5,0,0.9-0.1,1.3c-1.2,0.2-2,0.5-2.5,0.7l3.1,7.9c0.7,1.8,1.2,3.5,1.5,4.9h0.1c0.5-1.9,0.9-3.2,1.2-4.1l3.4-8.7l-2.8-0.7  c-0.1-0.5,0-0.9,0.2-1.3c1.7,0.1,2.9,0.2,3.7,0.2c0.9,0,2.1-0.1,3.7-0.2c0.1,0.5,0,0.9-0.1,1.3c-1.3,0.2-2.1,0.5-2.6,0.7L51.2,132  C50.7,132.3,50.2,132.4,49.6,132.5"></path>	<path class="st1" d="M49.6,132.5l-7.1-17.3l-2.8-0.7c-0.1-0.5,0-0.9,0.2-1.3c1.9,0.1,3.4,0.2,4.4,0.2c0.9,0,2.4-0.1,4.6-0.2  c0.1,0.5,0,0.9-0.1,1.3c-1.2,0.2-2,0.5-2.5,0.7l3.1,7.9c0.7,1.8,1.2,3.5,1.5,4.9h0.1c0.5-1.9,0.9-3.2,1.2-4.1l3.4-8.7l-2.8-0.7  c-0.1-0.5,0-0.9,0.2-1.3c1.7,0.1,2.9,0.2,3.7,0.2c0.9,0,2.1-0.1,3.7-0.2c0.1,0.5,0,0.9-0.1,1.3c-1.3,0.2-2.1,0.5-2.6,0.7L51.2,132  C50.7,132.3,50.2,132.4,49.6,132.5z"></path>	<path class="st0" d="M65.4,121.7v0.7c0,2.4,0.5,4.3,1.5,5.6c1,1.3,2.3,2,4,2c1.1,0,1.9-0.1,2.6-0.3c0.6-0.2,1.5-0.6,2.4-1.3  c0.4,0.2,0.6,0.5,0.6,0.9c-1.7,1.8-3.6,2.7-5.8,2.7c-2.8,0-5-0.9-6.6-2.6c-1.7-1.7-2.5-4.1-2.5-7c0-3,0.9-5.4,2.6-7.1  c1.7-1.7,3.8-2.5,6.3-2.5c2,0,3.6,0.7,4.7,2.1c1.1,1.4,1.6,3.2,1.6,5.6c0,0.4,0,0.7,0,0.9l-0.5,0.4L65.4,121.7z M70.6,114.4  c-1.1,0-2.2,0.5-3.1,1.5c-0.9,1-1.6,2.5-1.9,4.3l7.8-0.4c0-1.9-0.2-3.3-0.6-4.2C72.4,114.8,71.6,114.4,70.6,114.4"></path>	<path class="st1" d="M65.4,121.7v0.7c0,2.4,0.5,4.3,1.5,5.6c1,1.3,2.3,2,4,2c1.1,0,1.9-0.1,2.6-0.3c0.6-0.2,1.5-0.6,2.4-1.3  c0.4,0.2,0.6,0.5,0.6,0.9c-1.7,1.8-3.6,2.7-5.8,2.7c-2.8,0-5-0.9-6.6-2.6c-1.7-1.7-2.5-4.1-2.5-7c0-3,0.9-5.4,2.6-7.1  c1.7-1.7,3.8-2.5,6.3-2.5c2,0,3.6,0.7,4.7,2.1c1.1,1.4,1.6,3.2,1.6,5.6c0,0.4,0,0.7,0,0.9l-0.5,0.4L65.4,121.7z M70.6,114.4  c-1.1,0-2.2,0.5-3.1,1.5c-0.9,1-1.6,2.5-1.9,4.3l7.8-0.4c0-1.9-0.2-3.3-0.6-4.2C72.4,114.8,71.6,114.4,70.6,114.4z"></path>	<path class="st0" d="M93.8,120v9.6c0.4,0.2,1.2,0.4,2.5,0.7c0.1,0.5,0,0.9-0.2,1.3c-0.9,0.2-1.9,0.3-3,0.3c-0.8,0-1.5-0.1-2-0.2  l-0.5-1.9h-0.1c-1.4,1.5-3.2,2.2-5.4,2.2c-1.5,0-2.8-0.4-3.7-1.2c-0.9-0.8-1.4-1.9-1.4-3.4c0-4,3.5-5.9,10.3-5.8l0-3.2  c0-2.8-1-4.2-3.2-4.2c-1.3,0-2.4,0.2-3.4,0.5l-0.5,3.8c-0.5,0.2-1,0.2-1.6,0.1c-0.5-1.8-0.7-3.4-0.7-4.7c2-1,4.4-1.4,7.1-1.4  c2.1,0,3.5,0.5,4.4,1.6C93.4,115.4,93.8,117.3,93.8,120 M83.6,127.1c0,1,0.3,1.7,0.8,2.2c0.5,0.5,1.2,0.8,2.1,0.8  c0.7,0,1.4-0.2,2.1-0.6c0.8-0.4,1.3-0.9,1.7-1.4v-4.9c-2.5,0-4.2,0.3-5.2,0.9C84.1,124.6,83.6,125.6,83.6,127.1"></path>	<path class="st2" d="M93.8,120v9.6c0.4,0.2,1.2,0.4,2.5,0.7c0.1,0.5,0,0.9-0.2,1.3c-0.9,0.2-1.9,0.3-3,0.3c-0.8,0-1.5-0.1-2-0.2  l-0.5-1.9h-0.1c-1.4,1.5-3.2,2.2-5.4,2.2c-1.5,0-2.8-0.4-3.7-1.2c-0.9-0.8-1.4-1.9-1.4-3.4c0-4,3.5-5.9,10.3-5.8l0-3.2  c0-2.8-1-4.2-3.2-4.2c-1.3,0-2.4,0.2-3.4,0.5l-0.5,3.8c-0.5,0.2-1,0.2-1.6,0.1c-0.5-1.8-0.7-3.4-0.7-4.7c2-1,4.4-1.4,7.1-1.4  c2.1,0,3.5,0.5,4.4,1.6C93.4,115.4,93.8,117.3,93.8,120z M83.6,127.1c0,1,0.3,1.7,0.8,2.2c0.5,0.5,1.2,0.8,2.1,0.8  c0.7,0,1.4-0.2,2.1-0.6c0.8-0.4,1.3-0.9,1.7-1.4v-4.9c-2.5,0-4.2,0.3-5.2,0.9C84.1,124.6,83.6,125.6,83.6,127.1z"></path>	<path class="st0" d="M104.6,113.4l-0.1,2.4l0,0c2-2,4.3-3,6.8-3c1.6,0,2.8,0.4,3.7,1.3c0.9,0.9,1.3,2.2,1.3,3.9l0,11.5l2.5,0.7  c0.1,0.5,0,0.9-0.2,1.3c-1.9-0.1-3.3-0.2-4.1-0.2c-0.9,0-2.3,0.1-4.2,0.2c-0.1-0.5,0-0.9,0.1-1.3c0.7-0.1,1.5-0.4,2.4-0.7v-9.9  c0-1.6-0.2-2.7-0.7-3.3c-0.5-0.6-1.3-1-2.4-1c-1.9,0-3.5,0.7-4.8,2.2v12.1l2.4,0.7c0.1,0.5,0,0.9-0.2,1.3c-1.9-0.1-3.3-0.2-4-0.2  c-0.7,0-2.2,0.1-4.4,0.2c-0.1-0.5,0-0.9,0.1-1.3c1.2-0.3,2-0.5,2.5-0.7v-14l-3-0.3c-0.1-0.5,0-0.9,0.2-1.3c1.8-0.3,3.5-0.6,5-1  C103.8,113.1,104.2,113.2,104.6,113.4"></path>	<path class="st2" d="M104.6,113.4l-0.1,2.4l0,0c2-2,4.3-3,6.8-3c1.6,0,2.8,0.4,3.7,1.3c0.9,0.9,1.3,2.2,1.3,3.9l0,11.5l2.5,0.7  c0.1,0.5,0,0.9-0.2,1.3c-1.9-0.1-3.3-0.2-4.1-0.2c-0.9,0-2.3,0.1-4.2,0.2c-0.1-0.5,0-0.9,0.1-1.3c0.7-0.1,1.5-0.4,2.4-0.7v-9.9  c0-1.6-0.2-2.7-0.7-3.3c-0.5-0.6-1.3-1-2.4-1c-1.9,0-3.5,0.7-4.8,2.2v12.1l2.4,0.7c0.1,0.5,0,0.9-0.2,1.3c-1.9-0.1-3.3-0.2-4-0.2  c-0.7,0-2.2,0.1-4.4,0.2c-0.1-0.5,0-0.9,0.1-1.3c1.2-0.3,2-0.5,2.5-0.7v-14l-3-0.3c-0.1-0.5,0-0.9,0.2-1.3c1.8-0.3,3.5-0.6,5-1  C103.8,113.1,104.2,113.2,104.6,113.4z"></path>	<path class="st0" d="M138.8,104.6v25.1c0.4,0.4,1.2,0.6,2.5,0.7c0,0,0,0.1,0,0.2c0,0.1,0,0.1,0,0.2c0,0.3-0.1,0.6-0.2,0.9  c-0.8,0.2-1.8,0.3-3,0.3c-0.8,0-1.5-0.1-2.1-0.2c-0.2-0.3-0.3-0.6-0.4-0.9c-0.1-0.3-0.2-0.7-0.3-1h-0.2c-0.9,0.8-1.8,1.4-2.8,1.8  c-0.9,0.4-1.9,0.5-2.8,0.5c-1,0-2-0.2-2.9-0.7c-0.9-0.5-1.7-1.1-2.3-2c-0.7-0.8-1.2-1.8-1.5-3c-0.4-1.1-0.6-2.4-0.6-3.7  c0-1.6,0.2-3,0.6-4.2c0.4-1.2,1-2.3,1.8-3.1c0.8-0.9,1.7-1.5,2.9-2c1.1-0.5,2.4-0.7,3.8-0.7c1.4,0,2.6,0.3,3.8,0.9h0.1v-6.9l-3-0.3  c0-0.1,0-0.2,0-0.4c0-0.3,0.1-0.6,0.2-0.9c1.7-0.2,3.3-0.6,4.9-1C137.9,104.3,138.4,104.4,138.8,104.6 M131.1,130  c1.5,0,2.9-0.6,4.1-1.9v-12.5c-0.9-0.8-2.1-1.1-3.6-1.1c-1.8,0-3.2,0.7-4.1,2.1c-0.9,1.4-1.4,3.3-1.4,5.9c0,2.5,0.4,4.4,1.3,5.7  C128.2,129.4,129.5,130,131.1,130"></path>	<path class="st2" d="M138.8,104.6v25.1c0.4,0.4,1.2,0.6,2.5,0.7c0,0,0,0.1,0,0.2c0,0.1,0,0.1,0,0.2c0,0.3-0.1,0.6-0.2,0.9  c-0.8,0.2-1.8,0.3-3,0.3c-0.8,0-1.5-0.1-2.1-0.2c-0.2-0.3-0.3-0.6-0.4-0.9c-0.1-0.3-0.2-0.7-0.3-1h-0.2c-0.9,0.8-1.8,1.4-2.8,1.8  c-0.9,0.4-1.9,0.5-2.8,0.5c-1,0-2-0.2-2.9-0.7c-0.9-0.5-1.7-1.1-2.3-2c-0.7-0.8-1.2-1.8-1.5-3c-0.4-1.1-0.6-2.4-0.6-3.7  c0-1.6,0.2-3,0.6-4.2c0.4-1.2,1-2.3,1.8-3.1c0.8-0.9,1.7-1.5,2.9-2c1.1-0.5,2.4-0.7,3.8-0.7c1.4,0,2.6,0.3,3.8,0.9h0.1v-6.9l-3-0.3  c0-0.1,0-0.2,0-0.4c0-0.3,0.1-0.6,0.2-0.9c1.7-0.2,3.3-0.6,4.9-1C137.9,104.3,138.4,104.4,138.8,104.6z M131.1,130  c1.5,0,2.9-0.6,4.1-1.9v-12.5c-0.9-0.8-2.1-1.1-3.6-1.1c-1.8,0-3.2,0.7-4.1,2.1c-0.9,1.4-1.4,3.3-1.4,5.9c0,2.5,0.4,4.4,1.3,5.7  C128.2,129.4,129.5,130,131.1,130z"></path>	<path class="st0" d="M144.1,122.4c0-3,0.9-5.4,2.6-7.1c1.8-1.7,3.9-2.6,6.4-2.6c2.8,0,5,0.9,6.6,2.8c1.6,1.8,2.4,4.2,2.4,6.9  c0,3-0.9,5.4-2.6,7.2c-1.7,1.7-3.9,2.6-6.5,2.6c-2.9,0-5.1-0.9-6.7-2.8C144.9,127.5,144.1,125.2,144.1,122.4 M158.3,122.9  c0-2.3-0.4-4.3-1.2-6c-0.9-1.7-2.2-2.6-4-2.6c-1.8,0-3.1,0.8-3.9,2.3c-0.8,1.5-1.2,3.6-1.2,6.1c0,1.1,0.1,2.1,0.3,3.1  c0.2,1,0.5,1.8,1,2.5c0.4,0.7,1,1.3,1.6,1.7c0.7,0.4,1.4,0.6,2.4,0.6c1.5,0,2.7-0.6,3.7-1.8C157.8,127.6,158.3,125.6,158.3,122.9"></path>	<path class="st1" d="M144.1,122.4c0-3,0.9-5.4,2.6-7.1c1.8-1.7,3.9-2.6,6.4-2.6c2.8,0,5,0.9,6.6,2.8c1.6,1.8,2.4,4.2,2.4,6.9  c0,3-0.9,5.4-2.6,7.2c-1.7,1.7-3.9,2.6-6.5,2.6c-2.9,0-5.1-0.9-6.7-2.8C144.9,127.5,144.1,125.2,144.1,122.4z M158.3,122.9  c0-2.3-0.4-4.3-1.2-6c-0.9-1.7-2.2-2.6-4-2.6c-1.8,0-3.1,0.8-3.9,2.3c-0.8,1.5-1.2,3.6-1.2,6.1c0,1.1,0.1,2.1,0.3,3.1  c0.2,1,0.5,1.8,1,2.5c0.4,0.7,1,1.3,1.6,1.7c0.7,0.4,1.4,0.6,2.4,0.6c1.5,0,2.7-0.6,3.7-1.8C157.8,127.6,158.3,125.6,158.3,122.9z"></path>	<path class="st0" d="M170.9,132c-1.3,0-2.4-0.4-3-1.2c-0.7-0.8-1-2-1-3.7v-11.5h-2.5c-0.2-0.5-0.3-1-0.2-1.6c1.3,0,2.3-0.2,2.8-0.8  c0.5-0.6,1-1.8,1.5-3.6h1.9v4h3.8c0.3,0.7,0.3,1.4,0,2h-3.8v10.6c0,1.6,0.1,2.7,0.4,3.2c0.3,0.5,0.7,0.8,1.4,0.8  c0.6,0,1.3-0.2,2.2-0.7c0.3,0.2,0.5,0.6,0.5,1.1c-0.3,0.4-0.8,0.7-1.5,1C172.6,131.8,171.8,132,170.9,132"></path>	<path class="st1" d="M170.9,132c-1.3,0-2.4-0.4-3-1.2c-0.7-0.8-1-2-1-3.7v-11.5h-2.5c-0.2-0.5-0.3-1-0.2-1.6c1.3,0,2.3-0.2,2.8-0.8  c0.5-0.6,1-1.8,1.5-3.6h1.9v4h3.8c0.3,0.7,0.3,1.4,0,2h-3.8v10.6c0,1.6,0.1,2.7,0.4,3.2c0.3,0.5,0.7,0.8,1.4,0.8  c0.6,0,1.3-0.2,2.2-0.7c0.3,0.2,0.5,0.6,0.5,1.1c-0.3,0.4-0.8,0.7-1.5,1C172.6,131.8,171.8,132,170.9,132z"></path>	<path class="st0" d="M185,104.6v10.8h0.2c2-1.8,4-2.7,5.9-2.7c1.9,0,3.3,0.5,4.2,1.5c0.9,1,1.4,2.4,1.4,4.1v11.3l2.6,0.7  c0.1,0.5,0,0.9-0.2,1.3c-2.2-0.1-3.6-0.2-4.2-0.2c-0.7,0-2.2,0.1-4.4,0.2c-0.1-0.5,0-0.9,0.1-1.3c1.2-0.2,2-0.5,2.5-0.7v-10.7  c0-1.4-0.3-2.3-0.9-2.9c-0.6-0.5-1.5-0.8-2.6-0.8c-0.8,0-1.6,0.2-2.4,0.6c-0.8,0.4-1.5,0.9-2.1,1.5v12.3l2.4,0.7  c0.1,0.5,0,0.9-0.2,1.3c-2.2-0.1-3.5-0.2-4-0.2c-0.7,0-2.2,0.1-4.4,0.2c-0.1-0.5,0-0.9,0.1-1.3c1.3-0.3,2.2-0.6,2.5-0.7v-22.9  l-3-0.3c-0.1-0.5,0-0.9,0.2-1.3c1.7-0.3,3.3-0.6,4.9-1C184.1,104.3,184.5,104.4,185,104.6"></path>	<path class="st1" d="M185,104.6v10.8h0.2c2-1.8,4-2.7,5.9-2.7c1.9,0,3.3,0.5,4.2,1.5c0.9,1,1.4,2.4,1.4,4.1v11.3l2.6,0.7  c0.1,0.5,0,0.9-0.2,1.3c-2.2-0.1-3.6-0.2-4.2-0.2c-0.7,0-2.2,0.1-4.4,0.2c-0.1-0.5,0-0.9,0.1-1.3c1.2-0.2,2-0.5,2.5-0.7v-10.7  c0-1.4-0.3-2.3-0.9-2.9c-0.6-0.5-1.5-0.8-2.6-0.8c-0.8,0-1.6,0.2-2.4,0.6c-0.8,0.4-1.5,0.9-2.1,1.5v12.3l2.4,0.7  c0.1,0.5,0,0.9-0.2,1.3c-2.2-0.1-3.5-0.2-4-0.2c-0.7,0-2.2,0.1-4.4,0.2c-0.1-0.5,0-0.9,0.1-1.3c1.3-0.3,2.2-0.6,2.5-0.7v-22.9  l-3-0.3c-0.1-0.5,0-0.9,0.2-1.3c1.7-0.3,3.3-0.6,4.9-1C184.1,104.3,184.5,104.4,185,104.6z"></path>	<path class="st0" d="M205.8,121.7v0.7c0,2.4,0.5,4.3,1.5,5.6c1,1.3,2.3,2,4,2c1.1,0,1.9-0.1,2.6-0.3c0.6-0.2,1.5-0.6,2.4-1.3  c0.4,0.2,0.6,0.5,0.6,0.9c-1.7,1.8-3.6,2.7-5.8,2.7c-2.8,0-5-0.9-6.6-2.6c-1.7-1.7-2.5-4.1-2.5-7c0-3,0.9-5.4,2.6-7.1  c1.7-1.7,3.8-2.5,6.3-2.5c2,0,3.6,0.7,4.7,2.1c1.1,1.4,1.6,3.2,1.6,5.6c0,0.4,0,0.7,0,0.9l-0.5,0.4L205.8,121.7z M210.9,114.4  c-1.1,0-2.2,0.5-3.1,1.5c-0.9,1-1.6,2.5-1.9,4.3l7.8-0.4c0-1.9-0.2-3.3-0.6-4.2C212.8,114.8,212,114.4,210.9,114.4"></path>	<path class="st1" d="M205.8,121.7v0.7c0,2.4,0.5,4.3,1.5,5.6c1,1.3,2.3,2,4,2c1.1,0,1.9-0.1,2.6-0.3c0.6-0.2,1.5-0.6,2.4-1.3  c0.4,0.2,0.6,0.5,0.6,0.9c-1.7,1.8-3.6,2.7-5.8,2.7c-2.8,0-5-0.9-6.6-2.6c-1.7-1.7-2.5-4.1-2.5-7c0-3,0.9-5.4,2.6-7.1  c1.7-1.7,3.8-2.5,6.3-2.5c2,0,3.6,0.7,4.7,2.1c1.1,1.4,1.6,3.2,1.6,5.6c0,0.4,0,0.7,0,0.9l-0.5,0.4L205.8,121.7z M210.9,114.4  c-1.1,0-2.2,0.5-3.1,1.5c-0.9,1-1.6,2.5-1.9,4.3l7.8-0.4c0-1.9-0.2-3.3-0.6-4.2C212.8,114.8,212,114.4,210.9,114.4z"></path>	<path class="st0" d="M227.3,119.3v10.3l3.5,0.7c0.1,0.5,0,0.9-0.2,1.3c-2.2-0.1-3.9-0.2-5.1-0.2c-1,0-2.4,0.1-4.4,0.2  c-0.1-0.5,0-0.9,0.1-1.3c1.3-0.3,2.2-0.5,2.5-0.7v-14l-3-0.3c-0.1-0.5,0-0.9,0.2-1.3c2-0.3,3.7-0.6,5-1c0.3,0,0.7,0.1,1.2,0.4v3.3  l0,0c1.8-2.6,3.6-4,5.5-4c1,0,1.8,0.2,2.4,0.5c0.1,1.8-0.2,3.6-0.7,5.4c-0.6,0.1-1.1,0-1.6-0.1l-0.5-3.6  C230.2,115,228.6,116.4,227.3,119.3"></path>	<path class="st1" d="M227.3,119.3v10.3l3.5,0.7c0.1,0.5,0,0.9-0.2,1.3c-2.2-0.1-3.9-0.2-5.1-0.2c-1,0-2.4,0.1-4.4,0.2  c-0.1-0.5,0-0.9,0.1-1.3c1.3-0.3,2.2-0.5,2.5-0.7v-14l-3-0.3c-0.1-0.5,0-0.9,0.2-1.3c2-0.3,3.7-0.6,5-1c0.3,0,0.7,0.1,1.2,0.4v3.3  l0,0c1.8-2.6,3.6-4,5.5-4c1,0,1.8,0.2,2.4,0.5c0.1,1.8-0.2,3.6-0.7,5.4c-0.6,0.1-1.1,0-1.6-0.1l-0.5-3.6  C230.2,115,228.6,116.4,227.3,119.3z"></path>	<path class="st0" d="M243.1,113.4l0,1.4l0.2,0.2c1.7-1.5,3.5-2.3,5.4-2.3c2.3,0,4.1,0.9,5.4,2.7c1.3,1.8,2,4,2,6.5  c0,3.3-0.8,5.8-2.4,7.5c-1.6,1.7-3.9,2.6-6.8,2.6c-1.2,0-2.4-0.3-3.7-0.8v7.3l3.1,0.7c0.1,0.5,0,0.9-0.2,1.3  c-2.2-0.1-3.7-0.2-4.7-0.2c-0.9,0-2.4,0.1-4.4,0.2c-0.1-0.5,0-0.9,0.1-1.3c1.2-0.2,2-0.5,2.5-0.7v-23l-2.9-0.3  c-0.1-0.5,0-0.9,0.2-1.3c1-0.1,2.7-0.4,5-1C242.2,113.1,242.7,113.2,243.1,113.4 M243.3,116.9v12.4c1.1,0.8,2.3,1.2,3.6,1.2  c1.8,0,3.1-0.7,4.1-2.2c0.9-1.4,1.4-3.5,1.4-6.1c0-2.4-0.4-4.2-1.3-5.5c-0.8-1.2-2-1.8-3.5-1.8c-0.8,0-1.7,0.2-2.5,0.6  C244.2,115.9,243.6,116.4,243.3,116.9"></path>	<path class="st2" d="M243.1,113.4l0,1.4l0.2,0.2c1.7-1.5,3.5-2.3,5.4-2.3c2.3,0,4.1,0.9,5.4,2.7c1.3,1.8,2,4,2,6.5  c0,3.3-0.8,5.8-2.4,7.5c-1.6,1.7-3.9,2.6-6.8,2.6c-1.2,0-2.4-0.3-3.7-0.8v7.3l3.1,0.7c0.1,0.5,0,0.9-0.2,1.3  c-2.2-0.1-3.7-0.2-4.7-0.2c-0.9,0-2.4,0.1-4.4,0.2c-0.1-0.5,0-0.9,0.1-1.3c1.2-0.2,2-0.5,2.5-0.7v-23l-2.9-0.3  c-0.1-0.5,0-0.9,0.2-1.3c1-0.1,2.7-0.4,5-1C242.2,113.1,242.7,113.2,243.1,113.4z M243.3,116.9v12.4c1.1,0.8,2.3,1.2,3.6,1.2  c1.8,0,3.1-0.7,4.1-2.2c0.9-1.4,1.4-3.5,1.4-6.1c0-2.4-0.4-4.2-1.3-5.5c-0.8-1.2-2-1.8-3.5-1.8c-0.8,0-1.7,0.2-2.5,0.6  C244.2,115.9,243.6,116.4,243.3,116.9z"></path>	<path class="st0" d="M265.7,113.5v16.1l2.4,0.7c0.1,0.5,0,0.9-0.2,1.3c-2.2-0.1-3.5-0.2-4-0.2c-0.7,0-2.2,0.1-4.4,0.2  c-0.1-0.5,0-0.9,0.1-1.3c1.3-0.3,2.2-0.6,2.5-0.7v-14l-3-0.3c-0.1-0.5,0-0.9,0.2-1.3c2-0.3,3.7-0.6,5-1  C264.8,113.1,265.2,113.2,265.7,113.5 M260.8,107.4c0-0.5,0.3-0.9,0.8-1.4c0.6-0.5,1.1-0.7,1.7-0.7c0.6,0,1.1,0.3,1.5,0.8  c0.4,0.5,0.6,1.1,0.6,1.6c0,0.5-0.3,1-0.8,1.4c-0.5,0.5-1.1,0.7-1.7,0.7c-0.6,0-1.1-0.3-1.5-0.8C261,108.5,260.8,107.9,260.8,107.4  "></path>	<path class="st2" d="M265.7,113.5v16.1l2.4,0.7c0.1,0.5,0,0.9-0.2,1.3c-2.2-0.1-3.5-0.2-4-0.2c-0.7,0-2.2,0.1-4.4,0.2  c-0.1-0.5,0-0.9,0.1-1.3c1.3-0.3,2.2-0.6,2.5-0.7v-14l-3-0.3c-0.1-0.5,0-0.9,0.2-1.3c2-0.3,3.7-0.6,5-1  C264.8,113.1,265.2,113.2,265.7,113.5z M260.8,107.4c0-0.5,0.3-0.9,0.8-1.4c0.6-0.5,1.1-0.7,1.7-0.7c0.6,0,1.1,0.3,1.5,0.8  c0.4,0.5,0.6,1.1,0.6,1.6c0,0.5-0.3,1-0.8,1.4c-0.5,0.5-1.1,0.7-1.7,0.7c-0.6,0-1.1-0.3-1.5-0.8C261,108.5,260.8,107.9,260.8,107.4  z"></path>	<path class="st0" d="M283.6,118.7l-0.5-3.8c-0.7-0.3-1.6-0.5-2.7-0.5c-0.9,0-1.8,0.2-2.5,0.6c-0.7,0.4-1.3,0.9-1.8,1.6  c-0.5,0.7-0.8,1.6-1.1,2.5c-0.2,1-0.4,2.1-0.4,3.3c0,2.5,0.5,4.4,1.5,5.7c1,1.3,2.3,1.9,4,1.9c1.6,0,3.2-0.6,5-1.7  c0.3,0.2,0.5,0.5,0.6,0.9c-1.8,1.8-3.8,2.7-6.2,2.7c-1.1,0-2.3-0.2-3.3-0.7c-1.1-0.4-2-1.1-2.8-1.9c-0.8-0.8-1.4-1.8-1.9-3  c-0.5-1.2-0.7-2.5-0.7-4c0-1.5,0.2-2.9,0.7-4.1c0.5-1.2,1.2-2.2,2-3c0.8-0.8,1.8-1.5,3-1.9c1.2-0.4,2.4-0.6,3.7-0.6  c2,0,3.8,0.4,5.6,1.2c0,1.7-0.2,3.4-0.7,4.9c-0.1,0-0.3,0-0.6,0C284.2,118.9,283.9,118.8,283.6,118.7"></path>	<path class="st2" d="M283.6,118.7l-0.5-3.8c-0.7-0.3-1.6-0.5-2.7-0.5c-0.9,0-1.8,0.2-2.5,0.6c-0.7,0.4-1.3,0.9-1.8,1.6  c-0.5,0.7-0.8,1.6-1.1,2.5c-0.2,1-0.4,2.1-0.4,3.3c0,2.5,0.5,4.4,1.5,5.7c1,1.3,2.3,1.9,4,1.9c1.6,0,3.2-0.6,5-1.7  c0.3,0.2,0.5,0.5,0.6,0.9c-1.8,1.8-3.8,2.7-6.2,2.7c-1.1,0-2.3-0.2-3.3-0.7c-1.1-0.4-2-1.1-2.8-1.9c-0.8-0.8-1.4-1.8-1.9-3  c-0.5-1.2-0.7-2.5-0.7-4c0-1.5,0.2-2.9,0.7-4.1c0.5-1.2,1.2-2.2,2-3c0.8-0.8,1.8-1.5,3-1.9c1.2-0.4,2.4-0.6,3.7-0.6  c2,0,3.8,0.4,5.6,1.2c0,1.7-0.2,3.4-0.7,4.9c-0.1,0-0.3,0-0.6,0C284.2,118.9,283.9,118.8,283.6,118.7z"></path>	<path class="st0" d="M290.6,126l0.4,3.8c0.8,0.4,1.9,0.6,3.3,0.6c1.1,0,1.9-0.2,2.7-0.7c0.7-0.5,1.1-1.1,1.1-2.1  c0-0.8-0.4-1.5-1.1-2.1c-0.7-0.6-2-1.3-3.7-2.1c-1.5-0.7-2.6-1.5-3.3-2.4c-0.7-0.9-1.1-2-1.1-3.4c0-1.6,0.6-2.9,1.8-3.7  c1.2-0.8,2.7-1.2,4.6-1.2c1.8,0,3.6,0.3,5.2,1c0,0.1,0,0.2,0,0.4c0,0.2,0,0.3,0,0.4c0,1.4-0.2,2.8-0.7,4.1c-0.2,0-0.4,0.1-0.5,0.1  c-0.4,0-0.7-0.1-1.1-0.2l-0.6-3.9c-0.7-0.2-1.5-0.3-2.3-0.3c-1,0-1.8,0.2-2.5,0.6c-0.7,0.4-1,1.1-1,2c0,0.8,0.3,1.5,0.9,2.1  c0.6,0.6,1.7,1.3,3.4,2c1.9,0.9,3.3,1.8,4.1,2.7c0.8,0.8,1.2,1.9,1.2,3.2c0,1.6-0.6,2.9-1.9,3.8c-1.3,0.9-2.9,1.4-4.9,1.4  c-2.5,0-4.5-0.4-6.1-1.4v-0.6c0-1.5,0.2-2.9,0.6-4.2c0.1,0,0.3,0,0.4,0C289.8,125.8,290.2,125.9,290.6,126"></path>	<path class="st2" d="M290.6,126l0.4,3.8c0.8,0.4,1.9,0.6,3.3,0.6c1.1,0,1.9-0.2,2.7-0.7c0.7-0.5,1.1-1.1,1.1-2.1  c0-0.8-0.4-1.5-1.1-2.1c-0.7-0.6-2-1.3-3.7-2.1c-1.5-0.7-2.6-1.5-3.3-2.4c-0.7-0.9-1.1-2-1.1-3.4c0-1.6,0.6-2.9,1.8-3.7  c1.2-0.8,2.7-1.2,4.6-1.2c1.8,0,3.6,0.3,5.2,1c0,0.1,0,0.2,0,0.4c0,0.2,0,0.3,0,0.4c0,1.4-0.2,2.8-0.7,4.1c-0.2,0-0.4,0.1-0.5,0.1  c-0.4,0-0.7-0.1-1.1-0.2l-0.6-3.9c-0.7-0.2-1.5-0.3-2.3-0.3c-1,0-1.8,0.2-2.5,0.6c-0.7,0.4-1,1.1-1,2c0,0.8,0.3,1.5,0.9,2.1  c0.6,0.6,1.7,1.3,3.4,2c1.9,0.9,3.3,1.8,4.1,2.7c0.8,0.8,1.2,1.9,1.2,3.2c0,1.6-0.6,2.9-1.9,3.8c-1.3,0.9-2.9,1.4-4.9,1.4  c-2.5,0-4.5-0.4-6.1-1.4v-0.6c0-1.5,0.2-2.9,0.6-4.2c0.1,0,0.3,0,0.4,0C289.8,125.8,290.2,125.9,290.6,126z"></path>	<path class="st0" d="M153.1,2.8c0,1.4-1.2,2.6-2.6,2.6c-1.4,0-2.6-1.2-2.6-2.6c0-1.4,1.2-2.6,2.6-2.6C152,0.2,153.1,1.4,153.1,2.8"></path>	<path d="M150.5,5.6c-1.5,0-2.8-1.3-2.8-2.8c0-1.5,1.3-2.8,2.8-2.8c1.5,0,2.8,1.3,2.8,2.8C153.3,4.3,152.1,5.6,150.5,5.6 M150.5,0.4  c-1.3,0-2.4,1.1-2.4,2.4c0,1.3,1.1,2.4,2.4,2.4c1.3,0,2.4-1.1,2.4-2.4C152.9,1.5,151.9,0.4,150.5,0.4"></path>	<path class="st0" d="M153.1,93.2c0,1.4-1.2,2.6-2.6,2.6c-1.4,0-2.6-1.2-2.6-2.6c0-1.4,1.2-2.6,2.6-2.6  C152,90.6,153.1,91.8,153.1,93.2"></path>	<path d="M150.5,96c-1.5,0-2.8-1.3-2.8-2.8c0-1.5,1.3-2.8,2.8-2.8c1.5,0,2.8,1.3,2.8,2.8C153.3,94.8,152.1,96,150.5,96 M150.5,90.8  c-1.3,0-2.4,1.1-2.4,2.4c0,1.3,1.1,2.4,2.4,2.4c1.3,0,2.4-1.1,2.4-2.4C152.9,91.9,151.9,90.8,150.5,90.8"></path>	<path class="st0" d="M166.9,5.8c-0.4,1.4-1.9,2.1-3.3,1.7c-1.4-0.4-2.1-1.9-1.7-3.3c0.4-1.4,1.9-2.1,3.3-1.7  C166.6,3,167.3,4.4,166.9,5.8"></path>	<path d="M164.4,7.8c-0.3,0-0.6,0-0.9-0.1c-1.5-0.5-2.3-2.1-1.8-3.5c0.5-1.5,2-2.3,3.5-1.8c0.7,0.2,1.3,0.7,1.6,1.4  c0.3,0.7,0.4,1.4,0.2,2.1C166.7,7,165.6,7.8,164.4,7.8 M164.4,2.6c-0.4,0-0.7,0.1-1.1,0.3c-0.6,0.3-1,0.8-1.2,1.4  c-0.4,1.3,0.3,2.6,1.5,3c0.6,0.2,1.3,0.1,1.8-0.1c0.6-0.3,1-0.8,1.2-1.4c0.2-0.6,0.1-1.3-0.1-1.8s-0.8-1-1.4-1.2  C164.9,2.6,164.7,2.6,164.4,2.6"></path>	<path class="st0" d="M139.1,91.8c-0.4,1.4-1.9,2.1-3.3,1.7c-1.4-0.4-2.1-1.9-1.7-3.3c0.4-1.4,1.9-2.1,3.3-1.7  C138.8,89,139.6,90.5,139.1,91.8"></path>	<path d="M136.7,93.8c-0.3,0-0.6,0-0.9-0.1c-1.5-0.5-2.3-2.1-1.8-3.5c0.5-1.5,2-2.3,3.5-1.8c1.5,0.5,2.3,2.1,1.8,3.5  C138.9,93.1,137.8,93.8,136.7,93.8 M136.7,88.6c-0.4,0-0.7,0.1-1.1,0.3c-0.6,0.3-1,0.8-1.2,1.4c-0.4,1.3,0.3,2.6,1.5,3  c1.3,0.4,2.6-0.3,3-1.5c0.4-1.3-0.3-2.6-1.5-3C137.2,88.7,136.9,88.6,136.7,88.6"></path>	<path class="st0" d="M179.1,12.9c-0.8,1.2-2.5,1.4-3.6,0.6c-1.2-0.8-1.4-2.5-0.6-3.6c0.8-1.2,2.5-1.4,3.6-0.6  C179.7,10.1,180,11.7,179.1,12.9"></path>	<path d="M177,14.2c-0.6,0-1.1-0.2-1.6-0.5c-0.6-0.4-1-1.1-1.1-1.8c-0.1-0.7,0.1-1.5,0.5-2.1c0.9-1.2,2.7-1.5,3.9-0.6  c1.2,0.9,1.5,2.7,0.6,3.9c-0.4,0.6-1.1,1-1.8,1.1C177.3,14.1,177.2,14.2,177,14.2 M177,9c-0.1,0-0.3,0-0.4,0  c-0.6,0.1-1.2,0.4-1.6,1c-0.4,0.5-0.5,1.1-0.4,1.8c0.1,0.6,0.4,1.2,1,1.6c1.1,0.8,2.6,0.5,3.3-0.5c0.8-1.1,0.5-2.6-0.5-3.3  C178,9.1,177.5,9,177,9"></path>	<path class="st0" d="M126.2,86.2c-0.8,1.2-2.5,1.4-3.6,0.6c-1.2-0.8-1.4-2.5-0.6-3.6c0.8-1.2,2.5-1.4,3.6-0.6  C126.7,83.4,127,85,126.2,86.2"></path>	<path d="M124.1,87.4c-0.6,0-1.1-0.2-1.6-0.5c-0.6-0.4-1-1.1-1.1-1.8c-0.1-0.7,0.1-1.5,0.5-2.1c0.9-1.2,2.7-1.5,3.9-0.6  c0.6,0.4,1,1.1,1.1,1.8c0.1,0.7-0.1,1.5-0.5,2.1C125.8,87,124.9,87.4,124.1,87.4 M124.1,82.3c-0.7,0-1.5,0.3-1.9,1  c-0.4,0.5-0.5,1.1-0.4,1.8c0.1,0.6,0.4,1.2,1,1.6c1.1,0.8,2.6,0.5,3.3-0.5c0.8-1.1,0.5-2.6-0.5-3.3C125,82.4,124.5,82.3,124.1,82.3  "></path>	<path class="st0" d="M188.7,23.6c-1.2,0.8-2.8,0.6-3.6-0.6c-0.8-1.2-0.6-2.8,0.6-3.6c1.2-0.8,2.8-0.6,3.6,0.6  C190.1,21.1,189.8,22.8,188.7,23.6"></path>	<path d="M187.2,24.3c-0.9,0-1.7-0.4-2.3-1.2c-0.9-1.2-0.6-3,0.6-3.9c1.2-0.9,3-0.6,3.9,0.6c0.9,1.2,0.6,3-0.6,3.9  C188.3,24.1,187.7,24.3,187.2,24.3 M187.2,19.1c-0.5,0-1,0.2-1.4,0.5c-1.1,0.8-1.3,2.3-0.5,3.3c0.4,0.5,0.9,0.9,1.6,1  c0.6,0.1,1.3-0.1,1.8-0.4c0.5-0.4,0.9-0.9,1-1.6c0.1-0.6-0.1-1.3-0.4-1.8c-0.4-0.5-0.9-0.9-1.6-1C187.4,19.1,187.3,19.1,187.2,19.1  "></path>	<path class="st0" d="M115.4,76.6c-1.2,0.8-2.8,0.6-3.6-0.6c-0.8-1.2-0.6-2.8,0.6-3.6c1.2-0.8,2.8-0.6,3.6,0.6  C116.9,74.2,116.6,75.8,115.4,76.6"></path>	<path d="M113.9,77.3c-0.9,0-1.7-0.4-2.3-1.2c-0.9-1.2-0.6-3,0.6-3.9c1.2-0.9,3-0.6,3.9,0.6c0.9,1.2,0.6,3-0.6,3.9  C115.1,77.1,114.5,77.3,113.9,77.3 M113.9,72.1c-0.5,0-1,0.2-1.4,0.5c-0.5,0.4-0.9,0.9-1,1.6c-0.1,0.6,0.1,1.3,0.4,1.8  c0.4,0.5,0.9,0.9,1.6,1c0.6,0.1,1.3,0,1.8-0.4c0.5-0.4,0.9-0.9,1-1.6c0.1-0.6,0-1.3-0.4-1.8c-0.4-0.5-0.9-0.9-1.6-1  C114.2,72.1,114,72.1,113.9,72.1"></path>	<path class="st0" d="M195.8,50.3c-1.4,0-2.6-1.1-2.6-2.6c0-1.4,1.1-2.6,2.6-2.6c1.4,0,2.6,1.1,2.6,2.6  C198.3,49.2,197.2,50.3,195.8,50.3"></path>	<path d="M195.7,50.5c-0.7,0-1.4-0.3-2-0.8c-0.5-0.5-0.8-1.2-0.8-2c0-1.5,1.2-2.8,2.8-2.8h0c1.5,0,2.8,1.2,2.8,2.8  C198.6,49.3,197.3,50.5,195.7,50.5L195.7,50.5z M195.8,50.1l0,0.2L195.8,50.1c1.3,0,2.4-1.1,2.4-2.4c0-1.3-1.1-2.4-2.4-2.4h0  c-1.3,0-2.4,1.1-2.4,2.4c0,0.6,0.3,1.2,0.7,1.7C194.5,49.9,195.1,50.1,195.8,50.1L195.8,50.1z"></path>	<path class="st0" d="M105.3,50.9c-1.4,0-2.6-1.1-2.6-2.6c0-1.4,1.1-2.6,2.6-2.6c1.4,0,2.6,1.1,2.6,2.6  C107.9,49.7,106.8,50.8,105.3,50.9"></path>	<path d="M105.3,51.1c-1.5,0-2.8-1.2-2.8-2.8c0-1.5,1.2-2.8,2.8-2.8h0c1.5,0,2.8,1.2,2.8,2.8C108.1,49.8,106.9,51.1,105.3,51.1  L105.3,51.1z M105.3,45.9L105.3,45.9c-1.3,0-2.4,1.1-2.4,2.4c0,1.3,1.1,2.4,2.4,2.4c1.3,0,2.4-1.1,2.4-2.4  C107.7,46.9,106.6,45.9,105.3,45.9"></path>	<path class="st0" d="M138.4,4.4c0.5,1.4-0.3,2.8-1.6,3.3c-1.4,0.5-2.8-0.3-3.3-1.6c-0.5-1.4,0.3-2.8,1.6-3.3  C136.4,2.3,137.9,3,138.4,4.4"></path>	<path d="M135.9,8c-1.2,0-2.2-0.7-2.6-1.9c-0.5-1.5,0.3-3.1,1.7-3.5c1.5-0.5,3,0.3,3.5,1.7v0c0.5,1.5-0.3,3-1.7,3.5  C136.5,8,136.2,8,135.9,8 M135.9,2.8c-0.3,0-0.5,0-0.8,0.1c-1.2,0.4-1.9,1.8-1.5,3c0.4,1.2,1.8,1.9,3,1.5c1.2-0.4,1.9-1.8,1.5-3  C137.8,3.5,136.9,2.8,135.9,2.8"></path>	<path class="st0" d="M167.6,89.9c0.5,1.4-0.3,2.8-1.6,3.3c-1.4,0.5-2.8-0.3-3.3-1.6c-0.5-1.4,0.3-2.8,1.6-3.3  C165.7,87.9,167.1,88.6,167.6,89.9"></path>	<path d="M165.2,93.6c-0.4,0-0.8-0.1-1.2-0.3c-0.7-0.3-1.2-0.9-1.4-1.6c-0.5-1.5,0.3-3.1,1.7-3.5c0.7-0.2,1.5-0.2,2.1,0.1  c0.7,0.3,1.2,0.9,1.4,1.6c0.5,1.5-0.3,3-1.7,3.5C165.8,93.5,165.5,93.6,165.2,93.6 M165.2,88.4c-0.3,0-0.5,0-0.8,0.1  c-1.2,0.4-1.9,1.8-1.5,3c0.2,0.6,0.6,1.1,1.2,1.4c0.6,0.3,1.2,0.3,1.8,0.1c1.2-0.4,1.9-1.8,1.5-3C167.1,89,166.1,88.4,165.2,88.4"></path>	<path class="st0" d="M126.5,9.7c0.8,1.2,0.6,2.8-0.6,3.6c-1.2,0.8-2.8,0.6-3.6-0.6c-0.8-1.2-0.6-2.8,0.6-3.6  C124,8.2,125.6,8.5,126.5,9.7"></path>	<path d="M124.3,14c-0.9,0-1.7-0.4-2.3-1.2c-0.9-1.3-0.6-3,0.7-3.9c1.3-0.9,3-0.6,3.9,0.7c0.9,1.3,0.6,3-0.7,3.9  C125.5,13.8,124.9,14,124.3,14 M124.3,8.8c-0.5,0-1,0.2-1.4,0.4c-0.5,0.4-0.9,0.9-1,1.5c-0.1,0.6,0,1.3,0.4,1.8  c0.8,1.1,2.3,1.3,3.3,0.6c1.1-0.8,1.3-2.3,0.6-3.3c-0.4-0.5-0.9-0.9-1.5-1C124.6,8.8,124.5,8.8,124.3,8.8"></path>	<path class="st0" d="M178.8,83.3c0.8,1.2,0.6,2.8-0.6,3.6c-1.2,0.8-2.8,0.6-3.6-0.6c-0.8-1.2-0.6-2.8,0.6-3.6  C176.4,81.9,178,82.2,178.8,83.3"></path>	<path d="M176.7,87.6c-0.9,0-1.7-0.4-2.3-1.2c-0.9-1.3-0.6-3,0.7-3.9c1.3-0.9,3-0.6,3.9,0.7c0.9,1.3,0.6,3-0.7,3.9  C177.9,87.5,177.3,87.6,176.7,87.6 M176.7,82.5c-0.5,0-1,0.1-1.4,0.4c-1.1,0.8-1.3,2.3-0.6,3.3c0.8,1.1,2.3,1.3,3.3,0.6  c1.1-0.8,1.3-2.3,0.6-3.3C178.2,82.8,177.5,82.5,176.7,82.5"></path>	<path class="st0" d="M115.1,19.8c1.2,0.8,1.4,2.4,0.6,3.6c-0.8,1.2-2.4,1.4-3.6,0.6c-1.2-0.8-1.4-2.4-0.6-3.6  C112.3,19.3,113.9,19,115.1,19.8"></path>	<path d="M113.6,24.7c-0.6,0-1.1-0.2-1.6-0.5c-1.3-0.9-1.6-2.6-0.7-3.9c0.9-1.3,2.6-1.6,3.9-0.7c1.3,0.9,1.6,2.6,0.7,3.9  C115.3,24.3,114.5,24.7,113.6,24.7 M113.6,19.6c-0.8,0-1.5,0.4-2,1c-0.8,1.1-0.5,2.6,0.6,3.3c1.1,0.8,2.6,0.5,3.3-0.6  c0.8-1.1,0.5-2.6-0.6-3.3C114.5,19.7,114.1,19.6,113.6,19.6"></path>	<path class="st0" d="M189,71.9c1.2,0.8,1.4,2.4,0.6,3.6c-0.8,1.2-2.4,1.4-3.6,0.6c-1.2-0.8-1.4-2.4-0.6-3.6  C186.2,71.4,187.8,71.1,189,71.9"></path>	<path d="M187.5,76.9c-0.6,0-1.1-0.2-1.6-0.5c-0.6-0.4-1-1.1-1.1-1.8c-0.1-0.7,0-1.5,0.5-2.1c0.4-0.6,1.1-1,1.8-1.1  c0.7-0.1,1.5,0,2.1,0.5c0.6,0.4,1,1.1,1.1,1.8c0.1,0.7,0,1.5-0.5,2.1C189.2,76.4,188.4,76.9,187.5,76.9 M187.5,71.7  c-0.1,0-0.3,0-0.4,0c-0.6,0.1-1.2,0.5-1.5,1c-0.8,1.1-0.5,2.6,0.6,3.3c1.1,0.8,2.6,0.5,3.3-0.6c0.8-1.1,0.5-2.6-0.6-3.3  C188.5,71.8,188,71.7,187.5,71.7"></path>	<path class="st0" d="M108.1,32.2c1.4,0.4,2.1,1.9,1.7,3.2c-0.4,1.4-1.9,2.1-3.2,1.7c-1.4-0.4-2.1-1.9-1.7-3.2  C105.3,32.6,106.7,31.8,108.1,32.2"></path>	<path d="M107.3,37.5c-0.3,0-0.5,0-0.8-0.1c-1.5-0.5-2.3-2-1.9-3.5c0.5-1.5,2-2.3,3.5-1.9c1.5,0.5,2.3,2,1.8,3.5  C109.6,36.7,108.5,37.5,107.3,37.5 M107.3,32.3c-0.4,0-0.8,0.1-1.1,0.3c-0.6,0.3-1,0.8-1.2,1.4c-0.4,1.3,0.3,2.6,1.6,3  c0.6,0.2,1.3,0.1,1.8-0.2c0.6-0.3,1-0.8,1.2-1.4c0.4-1.3-0.3-2.6-1.6-3C107.8,32.4,107.6,32.3,107.3,32.3"></path>	<path class="st0" d="M194.5,58.8c1.4,0.4,2.1,1.9,1.7,3.2c-0.4,1.4-1.9,2.1-3.2,1.7c-1.4-0.4-2.1-1.9-1.7-3.2  C191.7,59.2,193.1,58.4,194.5,58.8"></path>	<path d="M193.8,64.1c-0.3,0-0.5,0-0.8-0.1c-1.5-0.5-2.3-2-1.9-3.5c0.5-1.5,2-2.3,3.5-1.9c1.5,0.5,2.3,2,1.9,3.5  C196.1,63.3,194.9,64.1,193.8,64.1 M193.8,58.9c-1,0-2,0.7-2.3,1.7c-0.4,1.3,0.3,2.6,1.6,3c0.6,0.2,1.3,0.1,1.8-0.2  c0.6-0.3,1-0.8,1.2-1.4c0.2-0.6,0.1-1.3-0.2-1.8c-0.3-0.6-0.8-1-1.4-1.2C194.2,58.9,194,58.9,193.8,58.9"></path>	<path class="st0" d="M106.5,58.6c1.4-0.4,2.8,0.4,3.2,1.7c0.4,1.4-0.4,2.8-1.7,3.2c-1.4,0.4-2.8-0.4-3.2-1.7  C104.4,60.5,105.2,59,106.5,58.6"></path>	<path d="M107.3,63.9c-1.2,0-2.3-0.8-2.7-2c-0.2-0.7-0.1-1.5,0.2-2.1c0.4-0.7,0.9-1.1,1.7-1.4c1.5-0.4,3,0.4,3.5,1.9  c0.4,1.5-0.4,3-1.9,3.5C107.8,63.9,107.5,63.9,107.3,63.9 M106.6,58.8c-1.3,0.4-2,1.7-1.6,3c0.2,0.6,0.6,1.1,1.2,1.4  c0.6,0.3,1.2,0.4,1.8,0.2c1.3-0.4,2-1.7,1.6-3C109.2,59.2,107.8,58.4,106.6,58.8z"></path>	<path class="st0" d="M193.1,32.4c1.4-0.4,2.8,0.4,3.2,1.7c0.4,1.4-0.4,2.8-1.7,3.2c-1.4,0.4-2.8-0.4-3.2-1.7  C190.9,34.3,191.7,32.8,193.1,32.4"></path>	<path d="M193.8,37.7c-0.5,0-0.9-0.1-1.3-0.3c-0.7-0.4-1.1-0.9-1.4-1.7c-0.2-0.7-0.1-1.5,0.2-2.1c0.4-0.7,0.9-1.1,1.7-1.4  c0.7-0.2,1.5-0.1,2.1,0.2c0.7,0.4,1.1,0.9,1.4,1.7c0.4,1.5-0.4,3-1.9,3.5C194.3,37.7,194.1,37.7,193.8,37.7 M193.1,32.6  c-1.3,0.4-2,1.7-1.6,3c0.2,0.6,0.6,1.1,1.2,1.4c0.6,0.3,1.2,0.4,1.8,0.2c1.3-0.4,2-1.7,1.6-3C195.7,32.9,194.4,32.2,193.1,32.6"></path>	<path class="st0" d="M67.1,201.8c1,0,2.3-0.3,3.7-0.9c2.4-1.1,4.3-2.7,5.6-4.7c1.3-2,2.2-4,2.6-6c0.4-2,0.6-3.5,0.6-4.5  c0-1.7-0.7-2.6-2.2-2.6c-0.7,0-1.4,0.2-1.9,0.7c-0.6,0.5-1.8,1.7-3.6,3.8c-1.9,2.1-3.1,3.7-3.8,4.8c0.2-3.1,1.9-8.3,5-15.6  c3.1-7.3,5.8-11,8-11h0.2c1.4,0,2.7,0.4,3.7,1.3c0.1,0.1,0.3,0.2,0.5,0.2c0.2,0,0.3-0.1,0.3-0.2s-0.1-0.4-0.4-0.7  c-0.7-1.1-1.7-1.7-3-2.1c0,0-0.2-0.1-0.4-0.1c-0.2,0-0.8,0.1-1.7,0.4c-0.9,0.2-1.5,0.4-1.7,0.6c-2.5,1.6-4.8,4.3-6.9,8.2  c-2,3.9-3.6,8.3-4.8,13.1c-1.2,4.8-1.7,8.4-1.7,10.6c0.1,0,0.4,0.3,0.9,0.8c0.5,0.5,0.9,0.8,1.2,0.8c0.3,0,0.4-0.1,0.4-0.4  c0-2.4,0.9-4.9,2.4-7.4c1.6-2.5,3.5-4.3,5.7-5.4c0.6-0.3,0.9,0.4,0.9,2c0,1.9-0.5,3.9-1.5,6.1c-1,2.1-2.2,3.9-3.6,5.2  c-1.4,1.3-2.6,2.1-3.8,2.3h-0.4c-2,0-3.2-1.6-3.5-4.7c-0.7,0.7-1.1,1.5-1.1,2.4C62.8,200.7,64.2,201.8,67.1,201.8"></path>	<path class="st0" d="M96.4,186.3c0-0.4-0.3-0.6-0.9-0.6c-1.1,0-1.8,0.8-2,2.4c-4.3,6-6.4,8.8-6.4,8.5c0.1-0.1,0.2-0.6,0.3-1.5  c0.1-0.9,0.2-1.7,0.2-2.3c0-0.7-0.1-1.6-0.2-2.7c-0.1-1.1-0.4-1.8-1-2.1c-0.5-0.3-1.1-0.5-1.8-0.5c-0.7,0-1.4,0.3-2.3,1  c-0.9,0.6-1.3,1.1-1.2,1.4c0.1,0.3,0.4,0.2,0.9-0.1c0.5-0.3,1-0.5,1.5-0.5c1,0,1.5,0.9,1.5,2.8c0,1.9-0.2,3.7-0.6,5.5  c-0.4,1.8-0.6,2.7-0.6,3c0,1,0.4,1.1,1.3,0.5c0.9-0.6,1.5-1.5,1.8-2.5c2.2-2.6,4.3-5.7,6.3-9.2c-1.1,6.8-2.1,11.1-2.9,13  c-12.4,3.2-20.8,6.3-25.1,9.2c-1.8,1.2-3,2.7-3.7,4.4c-0.4,1-0.6,2-0.6,2.8s0.1,1.7,0.4,2.6c0.7,2,1.9,3.5,3.7,4.4  c1.3,0.6,2.5,0.9,3.5,0.9s1.8-0.1,2.4-0.1c5.6-0.9,10.7-4.8,15.4-11.7c2.6-3.8,4.6-7.7,6-11.7c2.4-0.6,3.7-1.6,3.9-2.9  c0-0.4,0-0.6-0.1-0.8c-0.1-0.1-0.3-0.1-0.4,0c-0.2,0.1-0.3,0.4-0.3,0.6c-0.1,0.8-1,1.4-2.4,1.7c0.6-1.4,1.4-4,2.2-7.8  C96,190.2,96.4,187.6,96.4,186.3 M88.7,206.5c-0.6,1.6-1.1,2.7-1.4,3.4c-0.3,0.7-0.9,1.7-1.6,3.2c-0.7,1.4-1.4,2.5-1.9,3.3  c-0.6,0.8-1.3,1.7-2.3,2.8c-0.9,1.1-1.9,1.9-2.8,2.5c-0.9,0.6-2,1.2-3.3,1.7c-1.3,0.5-2.4,0.8-3.4,1c-1,0.1-2,0.2-2.9,0.2  c-1,0-2.1-0.2-3.5-0.6c-2.6-0.8-3.9-2.5-3.9-5c0-0.6,0.3-1.5,1-2.5c0.7-1,2-2.2,3.9-3.5c1.9-1.3,5.5-3,10.7-5.1  c5.2-2.1,9.5-3.6,12.7-4.4C89.8,204,89.3,205,88.7,206.5"></path>	<path class="st0" d="M156.4,167c-3.5-1.5-7.6-2.5-12.2-2.9c1-1.3,1.8-2.1,2.7-2.2c0.3-0.1,0.7-0.1,1.3-0.1s1.3,0.3,2.2,1  c0.2,0.1,0.4,0.3,0.6,0.5c0.1,0.2,0.3,0.4,0.3,0.5c0.1,0.1,0.2,0.1,0.4,0.1c0.2,0,0.3-0.2,0.3-0.5c0-0.3-0.6-0.9-1.7-1.7  c-1.2-0.8-2.3-1.3-3.6-1.3c-1.8,0-3.5,1.2-5.2,3.5c-0.6,0-1.2-0.1-1.9-0.1c-0.6,0-1.2,0-1.9,0.1c0.8-2.1,1.2-3.4,1.2-4  c0-0.5,0-0.9-0.1-1c-0.1-0.1-0.2-0.2-0.3-0.2s-0.2,0.4-0.3,1.3c-0.1,0.8-0.6,2.1-1.4,3.9c-6.1,0.4-10.9,1.5-14.5,3.2  c-2.5,1.2-4.4,2.7-5.5,4.5c-1.1,1.7-1.7,3.3-1.7,4.8c0,2.1,0.9,3.6,2.8,4.7c1.6,0.9,3.3,1.4,5.1,1.4c1.8,0,3.8-0.3,6-0.8  c-3.1,7.9-4.6,14.2-4.6,19.1c0,3.7,0.8,6.9,2.4,9.3c1.5,2.2,3.7,3.2,6.7,3.2c0.9,0,2.1-0.2,3.5-0.6c1.4-0.4,3.1-1.5,4.9-3.2  c1.9-1.7,3.5-3.8,4.7-6.4c4.9-0.9,9-2.7,12.2-5.5c3.2-2.7,5.4-5.5,6.7-8.2c1.3-2.7,1.9-5.2,1.9-7.4c0-0.6,0-1.2-0.1-1.9  C166.8,174.3,163,169.8,156.4,167 M137.4,164.8c0.8,0,2-0.1,3.6-0.1c-0.8,1.1-1.6,2.6-2.6,4.4c-1-0.3-1.9-0.5-2.7-0.6  C136.7,166.3,137.3,165.1,137.4,164.8 M140.5,170.9c1.3,0.7,2.5,1.7,3.7,3.1c-1.8,1.1-3.9,2.1-6.3,3.1  C138.9,174.8,139.7,172.7,140.5,170.9 M134.4,178.5c-1.1,0.4-2.3,0.8-3.5,1.1c1.3-3.6,2.8-7.1,4.5-10.4c1.1,0.1,2,0.4,2.7,0.7  C136.7,172.6,135.5,175.4,134.4,178.5 M122.5,181.1c-2.3,0-4-0.6-4.9-1.7c-0.6-0.7-0.9-1.4-0.9-2.3c0-0.9,0.3-1.9,0.9-2.9  c1.2-2.1,3.3-4.1,6.3-5.8c3-1.8,7.2-2.9,12.7-3.5l-1.7,3.6c-0.2,0-0.8-0.1-1.6-0.1c-3.2,0-5.6,0.9-7.2,2.7  c-1.7,1.8-2.5,3.3-2.5,4.6c0,1.2,0.2,1.8,0.5,1.7c0.2,0,0.3-0.2,0.2-0.5c-0.1-0.3-0.1-0.6-0.1-0.9c0-1.3,0.8-2.8,2.4-4.5  c1.6-1.7,3.7-2.6,6.3-2.6c0.9,0,1.4,0,1.7,0.1c-1.8,3.8-3.3,7.4-4.7,10.8C127.3,180.6,124.8,181.1,122.5,181.1 M140.4,209.9  c-2.1,1.6-4.2,2.4-6.3,2.4c-1.7,0-3.3-0.5-4.8-1.6c-2.3-1.7-3.4-5.1-3.4-10.3c0-1.7,0.3-4.1,0.8-7c0.5-3,1.7-7,3.6-11.9  c0.7-0.2,1.8-0.6,3.4-1.1c-3.2,8.9-5,15.9-5.4,20.9c0,0.4,0.1,0.8,0.5,1.3c0.4,0.5,0.7,0.7,1.1,0.9c0.4,0.1,0.6,0.1,0.8,0  c1.5-3,2.8-4.9,3.8-5.9c-0.2,0.6-0.3,1.2-0.3,1.8c0,1.5,0.8,2.7,2.4,3.4c1.6,0.7,3.3,1.1,4.9,1.1c1.6,0,3-0.1,4.2-0.2  C144.3,206.1,142.5,208.3,140.4,209.9 M146.9,201c-2,0.5-4,0.8-5.8,0.8c-2.3,0-4-0.5-5.2-1.5c-0.7-0.6-1-1.2-1-1.9  c0-1.3,1.1-3,3.3-4.9c0.2-0.1,0.2-0.3,0.1-0.4c-0.3-0.3-1-0.1-1.9,0.6c-0.3,0.2-0.8,0.7-1.4,1.4c-0.6,0.7-1,1.2-1.2,1.5  c-0.2,0.3-0.6,1.1-1.4,2.3c-0.7,1.2-1.2,2-1.4,2.2c0.2-1.9,0.9-5,2.1-9.3c1.2-4.3,2.6-8.7,4.1-13c2.6-1.2,5.1-2.5,7.6-4.2  c2.9,3.8,4.4,9.2,4.4,16C149.2,194.2,148.4,197.6,146.9,201 M163.3,188c-1,2.4-2.8,4.8-5.5,7.2c-2.7,2.4-5.9,4.2-9.6,5.4l0.8-2.2  c1-2.8,1.4-5.8,1.4-8.8c0-6.4-1.6-11.5-4.7-15.4c2-1.5,3.7-2.9,5.1-4.4c0.2-0.2,0.3-0.4,0.3-0.8c0-0.3-0.5,0-1.4,1  c-0.9,1-2.5,2.1-4.6,3.4c-1.3-1.4-2.8-2.5-4.2-3.3c0.9-2,1.9-3.8,2.9-5.2c3.8,0.3,7.3,1.1,10.3,2.5c3,1.4,5.4,3.1,7.2,5.1  c2.3,3,3.5,6.3,3.5,10C164.7,183.8,164.3,185.6,163.3,188"></path>	<path class="st0" d="M178.9,194.8c0-0.1,0-0.1-0.1-0.2c-0.1-0.1-0.2,0-0.4,0.1c-0.1,0.1-1.2,1-3.1,2.6s-3.1,2.3-3.6,2.3  c-0.9,0-1.3-0.7-1.3-2.2c0-0.5,0.1-1.9,0.4-4.2c0.3-2.3,0.5-3.5,0.8-3.6c0.5-0.1,0.9-0.6,1.3-1.5c0.4-0.9,0.5-1.6,0.5-2.2  c0-0.5-0.5-0.8-1.5-0.8c-1,0-1.5,0.2-1.6,0.6c-1.4,5.1-2.2,8.1-2.3,9.1c-0.1,1-0.1,1.7-0.1,2.3c0,2.8,0.8,4.2,2.4,4.2  c1.1,0,2.3-0.6,3.9-1.9c2.3-1.7,3.8-3.1,4.5-4.3C178.9,195,178.9,194.9,178.9,194.8"></path>	<path class="st0" d="M172,181.7c1.2,1,2.4,0.7,3.7-0.9c0.6-0.7,0.9-1.1,0.9-1.3c0-0.2-0.2-0.3-0.5-0.3c-1.1,0-2.4,0.7-4.1,2.1  C171.8,181.4,171.8,181.6,172,181.7"></path>	<path class="st0" d="M217.4,199.5c-1.3,1.6-2.6,2.5-4,2.7c-0.5,0-0.8-0.2-1-0.7c-0.2-0.5-0.3-1.4-0.3-2.7c0-1.3,0.4-3.4,1.1-6.3  c0.3-1.2,0.7-2.6,1.3-4.4c0.6-1.8,0.8-2.9,0.8-3.2c-0.1-0.5-0.9-0.7-2.3-0.7c-0.4,0-0.7,0.2-0.9,0.5c-3.3,5.1-6.3,8.9-9.1,11.5  c0.2-0.4,0.7-2.7,1.4-6.8c0.3-1.8,0.6-3,0.7-3.6c0.1-0.6-0.1-1-0.8-1c-0.4,0-0.8,0.1-1.3,0.4c-1.1,0.5-1.7,1.2-1.7,2l0.1,1.9  c0,1.9-0.3,4.3-1,7.3c-0.2-0.2-0.3-0.3-0.4-0.2c-2.3,2.6-4.3,4-6,4c-1.5,0-2.3-1.8-2.3-5.5c0-0.9,0-1.9,0.1-3.2c0-2-0.8-2-2.3-0.1  c-3.9,5.8-6.5,8.6-7.8,8.6c-0.4,0-0.6-0.3-0.6-1c0-0.7,0.3-1.7,0.9-3.1c0.6-1.4,1.6-3,2.9-4.9c3.1-4.3,5.7-6.5,7.8-6.5  c0.4,0,0.8,0.1,1.3,0.4c0.5,0.2,0.7,0.6,0.7,1.1c0,0.5-0.2,1-0.5,1.6c0.9-0.1,1.4-0.7,1.4-1.8c0-1-0.4-1.8-1.2-2.3  c-0.9-0.5-1.8-0.7-2.8-0.7c-2,0-4,0.9-6,2.8c-2,1.9-3.6,4-4.9,6.3c-1.2,2.3-1.8,4.4-1.8,6.3c0,1.9,0.8,3,2.4,3.2h0.2  c0.9,0,2-0.6,3.3-1.9c0.9-0.8,2.3-2.7,4.2-5.8c0,4.3,0.9,6.7,2.7,7.3c0.4,0.1,0.9,0.2,1.5,0.2s1.6-0.3,2.8-1  c1.2-0.7,2.3-1.4,3.1-2.3c0.6-0.6,1-1.1,1.3-1.4c-0.1,0.6-0.3,1.2-0.5,1.9c-0.3,1.3-0.5,2-0.5,2.1c0,0.4,0.3,0.6,0.9,0.4  c1.1-0.3,1.8-1,2.1-2c0.4-1,2.5-3.6,6.3-7.9c1.5-1.7,2.4-2.9,2.9-3.4c0,0-0.2,0.7-0.6,2c-0.4,1.3-0.7,2.5-1,3.8  c-0.3,1.3-0.4,2.3-0.5,3.2c-0.1,0.9-0.1,1.7-0.1,2.3c0,0.7,0.2,1.5,0.7,2.4c0.5,0.9,1.4,1.5,3,1.6c0.7,0,1.3-0.1,2-0.4  c1.9-0.9,2.8-1.8,2.8-2.9C217.7,199.4,217.6,199.3,217.4,199.5"></path>	<path class="st0" d="M240,196.2c-2.3,2.6-4.3,4-6,4c-1.5,0-2.3-1.8-2.3-5.5c0-0.9,0-1.9,0.1-3.2c0-2-0.8-2-2.3-0.1  c-3.9,5.8-6.5,8.6-7.8,8.6c-0.4,0-0.6-0.3-0.6-1c0-0.7,0.3-1.7,0.9-3.1c0.6-1.4,1.6-3,2.9-4.9c3.1-4.3,5.7-6.5,7.8-6.5  c0.4,0,0.8,0.1,1.3,0.4c0.5,0.2,0.7,0.6,0.7,1.1c0,0.5-0.2,1-0.5,1.6c0.9-0.1,1.4-0.7,1.4-1.8c0-1-0.4-1.8-1.2-2.3  c-0.9-0.5-1.8-0.7-2.8-0.7c-2,0-4,0.9-6,2.8c-2,1.9-3.6,4-4.9,6.3c-1.2,2.3-1.8,4.4-1.8,6.3c0,1.9,0.8,3,2.4,3.2h0.2  c0.9,0,2-0.6,3.3-1.9c0.9-0.8,2.3-2.7,4.2-5.8c0,4.3,0.9,6.7,2.7,7.3c0.4,0.1,0.9,0.2,1.5,0.2c0.6,0,1.6-0.3,2.8-1  c1.2-0.7,2.3-1.4,3.1-2.3c0.8-0.8,1.3-1.4,1.5-1.8C240.3,196.1,240.1,196,240,196.2"></path>	<rect x="0" y="191.4" class="st0" width="53.5" height="2.6"></rect>	<rect x="247.8" y="191.4" class="st0" width="53.5" height="2.6"></rect></g></svg>